nColumns=19
nRows=63
DataType=double
version=3
OpenSimVersion=4.1
endheader
time	ground_force_calcn_r_vx	ground_force_calcn_r_vy	ground_force_calcn_r_vz	ground_force_calcn_r_px	ground_force_calcn_r_py	ground_force_calcn_r_pz	ground_force_calcn_r_mx	ground_force_calcn_r_my	ground_force_calcn_r_mz	ground_force_calcn_l_vx	ground_force_calcn_l_vy	ground_force_calcn_l_vz	ground_force_calcn_l_px	ground_force_calcn_l_py	ground_force_calcn_l_pz	ground_force_calcn_l_mx	ground_force_calcn_l_my	ground_force_calcn_l_mz
2.25	0	0	0	0	0	0	0	0	0	0	0	0	0	0	0	0	0	0
2.25833	0	0	0	0	0	0	0	0	0	-3.48796	19.4717	-0.92385	0.9882	0	-0.269863	0.178696	-0.997578	0.0473308
2.26667	0	0	0	0	0	0	0	0	0	-11.1363	51.78	-2.92015	1.04129	0	-0.341062	0.156648	-0.728362	0.0410762
2.275	0	0	0	0	0	0	0	0	0	-21.7757	134.679	-4.43044	1.06038	0	-0.36181	0.0514962	-0.318496	0.0104773
2.28333	0	0	0	0	0	0	0	0	0	-29.7727	297.702	-3.37519	1.06207	0	-0.362575	-0.0328942	0.328914	-0.00372906
2.29167	0	0	0	0	0	0	0	0	0	-32.9863	532.741	0.859863	1.05659	0	-0.358929	-0.0781299	1.26183	0.00203664
2.3	0	0	0	0	0	0	0	0	0	-40.5601	766.529	5.234	1.04887	0	-0.355675	-0.130606	2.46828	0.0168538
2.30833	0	0	0	0	0	0	0	0	0	-61.7997	907.706	4.22177	1.0418	0	-0.354509	-0.260198	3.82175	0.0177751
2.31667	0	0	0	0	0	0	0	0	0	-92.1023	941.714	-4.39714	1.03579	0	-0.356721	-0.493717	5.04809	-0.023571
2.325	0	0	0	0	0	0	0	0	0	-122.117	942.384	-14.242	1.02749	0	-0.361817	-0.751767	5.80143	-0.0876751
2.33333	0	0	0	0	0	0	0	0	0	-148.371	983.003	-14.2671	1.01542	0	-0.365353	-0.880411	5.833	-0.084659
2.34167	0	0	0	0	0	0	0	0	0	-165.759	1078.9	-1.02459	1.00177	0	-0.364311	-0.783494	5.09965	-0.00484294
2.35	0	0	0	0	0	0	0	0	0	-168.738	1201.58	15.896	0.986415	0	-0.362002	-0.525981	3.7455	0.0495502
2.35833	0	0	0	0	0	0	0	0	0	-156.49	1312.95	24.77	0.969012	0	-0.362296	-0.24244	2.03406	0.0383745
2.36667	0	0	0	0	0	0	0	0	0	-134.022	1395.96	25.7395	0.950698	0	-0.364853	-0.022976	0.239315	0.00441263
2.375	0	0	0	0	0	0	0	0	0	-111.784	1457.08	28.9491	0.932816	0	-0.367015	0.108851	-1.41885	-0.0281894
2.38333	0	0	0	0	0	0	0	0	0	-92.8463	1505.53	39.6828	0.915252	0	-0.367355	0.170648	-2.76711	-0.0729355
2.39167	0	0	0	0	0	0	0	0	0	-72.2873	1539.66	51.1332	0.897127	0	-0.367194	0.172321	-3.6703	-0.121893
2.4	0	0	0	0	0	0	0	0	0	-48.0047	1551.03	53.9738	0.878491	0	-0.368381	0.125663	-4.06018	-0.141288
2.40833	0	0	0	0	0	0	0	0	0	-22.9896	1538.6	48.4479	0.859833	0	-0.370588	0.0592963	-3.96846	-0.12496
2.41667	0	0	0	0	0	0	0	0	0	-0.523698	1511.05	42.6625	0.84153	0	-0.37193	0.00121516	-3.50617	-0.0989917
2.425	0	0	0	0	0	0	0	0	0	20.8606	1475.98	41.1216	0.8234	0	-0.371518	-0.0394725	-2.79285	-0.0778105
2.43333	0	0	0	0	0	0	0	0	0	44.4057	1432.09	39.9005	0.804817	0	-0.370485	-0.0589972	-1.90266	-0.0530116
2.44167	0	0	0	0	0	0	0	0	0	68.9843	1373.39	33.5785	0.785558	0	-0.370227	-0.0439335	-0.874659	-0.0213849
2.45	0	0	0	0	0	0	0	0	0	91.3299	1298.8	22.7065	0.765926	0	-0.3705	0.0171825	0.244352	0.00427194
2.45833	0	0	0	0	0	0	0	0	0	109.695	1213.16	11.9994	0.746393	0	-0.369946	0.124714	1.37926	0.0136423
2.46667	0	0	0	0	0	0	0	0	0	125.713	1119.91	3.74931	0.726737	0	-0.368082	0.273707	2.43832	0.00816316
2.475	0	0	0	0	0	0	0	0	0	140.981	1017.71	-3.71963	0.706413	0	-0.365892	0.460979	3.3277	-0.0121624
2.48333	0	0	0	0	0	0	0	0	0	152.331	905.33	-11.7891	0.685447	0	-0.364501	0.66613	3.95893	-0.0515526
2.49167	0	0	0	0	0	0	0	0	0	156.34	786.636	-18.7245	0.664648	0	-0.36369	0.846492	4.25918	-0.101382
2.5	0	0	0	0	0	0	0	0	0	153.506	667.154	-21.8918	0.644855	0	-0.362323	0.963138	4.18589	-0.137354
2.50833	0	0	0	0	0	0	0	0	0	146.032	550.521	-21.0941	0.626208	0	-0.359888	0.992508	3.74164	-0.143367
2.51667	0	0	0	0	0	0	0	0	0	133.491	438.9	-18.531	0.60862	0	-0.357202	0.907779	2.98465	-0.126017
2.525	0	0	0	0	0	0	0	0	0	113.973	334.968	-16.0689	0.591687	0	-0.355888	0.685486	2.01465	-0.0966459
2.53333	0	0	0	0	0	0	0	0	0	89.5089	244.228	-13.5794	0.574738	0	-0.356376	0.341231	0.931061	-0.0517682
2.54167	0	0	0	0	0	0	0	0	0	65.806	171.762	-9.9917	0.559163	0	-0.356754	-0.0702951	-0.183479	0.0106733
2.55	0	0	0	0	0	0	0	0	0	46.9883	117.656	-5.2661	0.549532	0	-0.354093	-0.492147	-1.23231	0.0551563
2.55833	0	0	0	0	0	0	0	0	0	32.2806	77.8363	-0.791533	0.552093	0	-0.348304	-0.867574	-2.09193	0.0212732
2.56667	0	0	0	0	0	0	0	0	0	19.6693	47.9959	2.06735	0.569876	0	-0.343137	-1.09167	-2.66383	-0.11474
2.575	0	0	0	0	0	0	0	0	0	9.73082	26.4625	3.2464	0.596835	0	-0.339713	-1.05176	-2.86023	-0.35089
2.58333	0	0	0	0	0	0	0	0	0	3.72044	13.2698	3.60458	0.642813	0	-0.317972	-0.703979	-2.51091	-0.682056
2.59167	0	0	0	0	0	0	0	0	0	0	0	0	0	0	0	0	0	0
2.6	0	0	0	0	0	0	0	0	0	0	0	0	0	0	0	0	0	0
2.60833	0	0	0	0	0	0	0	0	0	0	0	0	0	0	0	0	0	0
2.61667	0	0	0	0	0	0	0	0	0	0	0	0	0	0	0	0	0	0
2.625	-3.58547	16.7066	-2.38937	1.02325	0	-0.294922	-0.818728	3.81489	-0.545602	0	0	0	0	0	0	0	0	0
2.63333	-11.0995	49.0905	-4.99992	1.06584	0	-0.320654	-0.966053	4.27262	-0.435171	0	0	0	0	0	0	0	0	0
2.64167	-24.4962	134.943	-6.1469	1.09288	0	-0.328482	-0.706273	3.89069	-0.177227	0	0	0	0	0	0	0	0	0
2.65	-39.2588	310.31	-2.2492	1.10438	0	-0.332756	-0.317538	2.50989	-0.0181923	0	0	0	0	0	0	0	0	0
2.65833	-50.0252	570.039	10.6078	1.10349	0	-0.333662	-0.0341724	0.389395	0.00724624	0	0	0	0	0	0	0	0	0
2.66667	-62.1483	826.152	30.9466	1.09698	0	-0.332468	0.143099	-1.90225	-0.071256	0	0	0	0	0	0	0	0	0
2.675	-85.3045	970.224	48.1179	1.08924	0	-0.331134	0.327491	-3.72477	-0.184728	0	0	0	0	0	0	0	0	0
2.68333	-116.761	991.459	49.1703	1.08153	0	-0.331449	0.54399	-4.61922	-0.229085	0	0	0	0	0	0	0	0	0
2.69167	-149.533	977.395	32.8021	1.07243	0	-0.333636	0.687088	-4.49102	-0.150722	0	0	0	0	0	0	0	0	0
2.7	-177.428	1006.62	13.0784	1.06083	0	-0.334951	0.635588	-3.60594	-0.0468499	0	0	0	0	0	0	0	0	0
2.70833	-190.953	1095.22	5.01053	1.0463	0	-0.333025	0.413965	-2.37431	-0.0108623	0	0	0	0	0	0	0	0	0
2.71667	-187.96	1217.09	8.44991	1.02885	0	-0.329698	0.169753	-1.0992	-0.00763138	0	0	0	0	0	0	0	0	0
2.725	-170.653	1335.04	10.5294	1.00988	0	-0.327886	-0.00854627	0.0668584	0.00052731	0	0	0	0	0	0	0	0	0
2.73333	-145.139	1425.54	2.62602	0.990996	0	-0.328017	-0.109244	1.07298	0.00197656	0	0	0	0	0	0	0	0	0
2.74167	-124.04	1486.74	-10.325	0.973394	0	-0.328412	-0.159542	1.91227	-0.0132802	0	0	0	0	0	0	0	0	0
2.75	-111.336	1528.51	-18.4793	0.956521	0	-0.327384	-0.189952	2.60781	-0.0315277	0	0	0	0	0	0	0	0	0
2.75833	-100.123	1558.11	-20.2662	0.939148	0	-0.325191	-0.207022	3.22167	-0.0419039	0	0	0	0	0	0	0	0	0
2.76667	-83.8121	1573.68	-22.6129	0.921124	0	-0.323566	-0.203698	3.82469	-0.0549588	0	0	0	0	0	0	0	0	0
